<?xml version="1.0" encoding="UTF-8" standalone="no"?><!DOCTYPE svg PUBLIC "-//W3C//DTD SVG 1.1//EN" "http://www.w3.org/Graphics/SVG/1.1/DTD/svg11.dtd"><svg width="100%" height="100%" viewBox="0 0 32 32" version="1.1" xmlns="http://www.w3.org/2000/svg" xmlns:xlink="http://www.w3.org/1999/xlink" xml:space="preserve" xmlns:serif="http://www.serif.com/" style="fill-rule:evenodd;clip-rule:evenodd;stroke-linecap:round;stroke-linejoin:round;stroke-miterlimit:1.5;"><g id="Artboard1" transform="matrix(0.03125,0,0,0.03125,0,0)"><rect x="0" y="0" width="1024" height="1024" style="fill:none;"/><g id="Layer1" transform="matrix(32,0,0,32,-6624,-6624)"><g transform="matrix(0.0580007,0,0,0.0580007,193.455,193.534)"><path d="M510,334.482L510,391L393,459L393,590.85L512,656L626,590.85L626,459L510,391" style="fill:none;stroke:rgb(32,36,138);stroke-width:22px;"/></g><g transform="matrix(0.0580007,0,0,0.0580007,193.455,193.534)"><path d="M626,459L510.035,526L510.035,647.328" style="fill:none;stroke:rgb(32,36,138);stroke-width:22px;"/></g><g transform="matrix(0.0580007,0,0,0.0580007,193.455,193.534)"><path d="M510.035,526L393,459" style="fill:none;stroke:rgb(32,36,138);stroke-width:22px;"/></g></g><g transform="matrix(1.85602,0,0,1.85602,-433.447,-430.907)"><path d="M481.043,304.443L314.978,411L314.978,590.85" style="fill:none;stroke:rgb(32,36,138);stroke-width:22px;"/></g><g transform="matrix(1.85602,0,0,1.85602,-433.447,-430.907)"><path d="M348.069,617.439L393,590.85" style="fill:none;stroke:rgb(32,36,138);stroke-width:22px;"/></g><g transform="matrix(1.85602,0,0,1.85602,-433.447,-430.907)"><path d="M626,590.85L690.516,632.955" style="fill:none;stroke:rgb(32,36,138);stroke-width:22px;"/></g><g transform="matrix(1.54051,0,0,1.54051,-633.33,321.416)"><circle cx="509.242" cy="279.03" r="56.478" style="fill:rgb(32,36,138);"/></g><g transform="matrix(1.54051,0,0,1.54051,88.3494,322.882)"><circle cx="509.242" cy="279.03" r="56.478" style="fill:rgb(32,36,138);"/></g><g transform="matrix(1.54051,0,0,1.54051,-269.877,-295.701)"><circle cx="509.242" cy="279.03" r="56.478" style="fill:rgb(32,36,138);"/></g><g transform="matrix(1.85602,0,0,1.85602,-433.447,-430.907)"><path d="M329.554,657.484L510.802,758.484L682.025,654.536" style="fill:none;stroke:rgb(32,36,138);stroke-width:22px;"/></g></g></svg>