<svg class="fill-current" xmlns="http://www.w3.org/2000/svg" xml:space="preserve" style="fill-rule:evenodd;clip-rule:evenodd;stroke-linecap:round;stroke-linejoin:round;stroke-miterlimit:1.5" viewBox="0 0 709 590"><path d="M0 0h1024v1024H0z" style="fill:none" transform="scale(.69184 .57542)"/><path d="M815.229 375.474c-23.589-3.586-140.65-7.916-140.65-7.916s-31.267-21.73-62.495-20.396c-31.227 1.335-39.109 11.417-44.035 13.793-4.925 2.376-40.105 26.143-41.18 77.808-1.31 36.787 31 54.687-6.8 68.08-39.247 13.905-87.285-72.559-97.761-94.566C394.6 354.07 198.14 282.919 140.592 233.854c-2.026 25.95 4.369 46.254 24.667 90.167 19.842 42.925 97.334 128.623 125.07 156.679 26.904 27.214 34.924 133.309 29.339 132.567l59.818-33.109L251.425 708.37l28.907-7.291s-87.07 77.572-110.586 89.363c33.07 2.837 132.771-87.839 179.77-116.809 30.858-19.022 59.253-26.428 97.977-34.263 38.724-7.834 101.849-55.32 111.18-68.445 9.331-13.125 35.938-33.021 35.655-75.964-.283-42.943-21.857-66.814-5.72-76.331 26.748-15.773 167.658-25.057 226.621-43.156Z" style="" transform="matrix(1 0 0 1 -116.353 -224.822)"/></svg>