<svg xmlns="http://www.w3.org/2000/svg" class="fill-current" xml:space="preserve" style="fill-rule:evenodd;clip-rule:evenodd;stroke-linejoin:round;stroke-miterlimit:2" viewBox="0 0 128 128"><path d="M0 0h1024v1024H0z" style="fill:none" transform="scale(.125)"/><path d="M213.208 232.755a2.72 2.72 0 1 1-2.122-4.922v-10.461c0-.217.11-.419.293-.537l8.987-5.766a2.72 2.72 0 0 1 5.435.123 2.72 2.72 0 0 1-2.128 2.654v2.001l6.413 3.759a.643.643 0 0 1 .315.55v7.302l1.875 1.224a2.72 2.72 0 1 1 2 4.56 2.7 2.7 0 0 1-1.793-.676l-9.07 5.506a.64.64 0 0 1-.642.012zm3.679-11.498v6.169l5.512 3.018v-6.032zm-4.526 6.576c.509.123.962.388 1.315.752l1.935-1.145v-7.284a.64.64 0 0 1 .317-.551l6.469-3.76v-2.021a2.73 2.73 0 0 1-1.749-1.42l-8.286 5.317v10.083zm11.314 2.715 5.45-3.114v-6.172l-5.45 3.149zm4.82-10.396-5.461-3.201-5.508 3.201 5.51 3.155zm-14.17 9.532a2.73 2.73 0 0 1-.222 2.109l8.965 4.996 8.678-5.269a2.7 2.7 0 0 1-.091-1.72l-1.914-1.249-6.273 3.586a.64.64 0 0 1-.623.005l-6.584-3.604z" transform="translate(-845.986 -845.986)scale(4.0807)"/></svg>